<svg width="388" height="72" viewBox="0 0 388 72" fill="none" xmlns="http://www.w3.org/2000/svg">
<path d="M0.0296876 0.999995H11.0297V29.5H22.8297V0.999995H33.8297V71H22.8297V39.5H11.0297V71H0.0296876V0.999995ZM42.0219 0.999995H72.0219V11H53.0219V29.5H68.1219V39.5H53.0219V61H72.0219V71H42.0219V0.999995ZM78.35 0.999995H89.35V61H107.45V71H78.35V0.999995ZM112.725 0.999995H123.725V61H141.825V71H112.725V0.999995ZM162.609 72C157.209 72 153.076 70.4667 150.209 67.4C147.343 64.3333 145.909 60 145.909 54.4V17.6C145.909 12 147.343 7.66666 150.209 4.6C153.076 1.53333 157.209 -3.8147e-06 162.609 -3.8147e-06C168.009 -3.8147e-06 172.143 1.53333 175.009 4.6C177.876 7.66666 179.309 12 179.309 17.6V54.4C179.309 60 177.876 64.3333 175.009 67.4C172.143 70.4667 168.009 72 162.609 72ZM162.609 62C166.409 62 168.309 59.7 168.309 55.1V16.9C168.309 12.3 166.409 10 162.609 10C158.809 10 156.909 12.3 156.909 16.9V55.1C156.909 59.7 158.809 62 162.609 62ZM211.364 11H199.864V0.999995H233.864V11H222.364V71H211.364V11ZM239.19 0.999995H250.19V29.5H261.99V0.999995H272.99V71H261.99V39.5H250.19V71H239.19V0.999995ZM281.182 0.999995H311.182V11H292.182V29.5H307.282V39.5H292.182V61H311.182V71H281.182V0.999995ZM317.51 0.999995H333.81C339.477 0.999995 343.61 2.33333 346.21 5C348.81 7.6 350.11 11.6333 350.11 17.1V21.4C350.11 28.6667 347.71 33.2667 342.91 35.2V35.4C345.577 36.2 347.443 37.8333 348.51 40.3C349.643 42.7667 350.21 46.0667 350.21 50.2V62.5C350.21 64.5 350.277 66.1333 350.41 67.4C350.543 68.6 350.877 69.8 351.41 71H340.21C339.81 69.8667 339.543 68.8 339.41 67.8C339.277 66.8 339.21 65 339.21 62.4V49.6C339.21 46.4 338.677 44.1667 337.61 42.9C336.61 41.6333 334.843 41 332.31 41H328.51V71H317.51V0.999995ZM332.51 31C334.71 31 336.343 30.4333 337.41 29.3C338.543 28.1667 339.11 26.2667 339.11 23.6V18.2C339.11 15.6667 338.643 13.8333 337.71 12.7C336.843 11.5667 335.443 11 333.51 11H328.51V31H332.51ZM357.842 0.999995H387.842V11H368.842V29.5H383.942V39.5H368.842V61H387.842V71H357.842V0.999995Z" fill="white"/>
</svg>
